<?xml version="1.0" encoding="UTF-8" standalone="no"?><!DOCTYPE svg PUBLIC "-//W3C//DTD SVG 1.1//EN" "http://www.w3.org/Graphics/SVG/1.1/DTD/svg11.dtd"><svg width="100%" height="100%" viewBox="0 0 1024 1024" version="1.1" xmlns="http://www.w3.org/2000/svg" xmlns:xlink="http://www.w3.org/1999/xlink" xml:space="preserve" xmlns:serif="http://www.serif.com/" style="fill-rule:evenodd;clip-rule:evenodd;stroke-linejoin:round;stroke-miterlimit:1.41421;"><path d="M75.112,888.437c-19.229,0 -38.42,-7.323 -53.142,-21.857c-29.293,-29.332 -29.293,-77.028 0,-106.209l248.395,-248.357l-248.395,-248.245c-29.293,-29.331 -29.293,-76.839 0,-106.208c29.369,-29.331 76.915,-29.331 106.246,0l301.349,301.349c14.046,14.083 21.97,33.275 21.97,53.254c0,19.792 -7.924,38.871 -21.97,53.104l-301.349,301.312c-14.684,14.534 -33.876,21.857 -53.104,21.857Zm948.888,-75.112c0,-41.349 -33.613,-75.112 -75.112,-75.112l-439.817,0c-41.387,0 -75.112,33.763 -75.112,75.112c0,41.537 33.725,75.112 75.112,75.112l439.817,0c41.499,0 75.112,-33.575 75.112,-75.112Z" style="fill:#333;fill-rule:nonzero;"/></svg>